<svg width="20" height="20" viewBox="0 0 20 20" fill="none" xmlns="http://www.w3.org/2000/svg">
<path d="M8.75004 13.3328C12.2018 13.3328 15 10.5347 15 7.08293C15 3.63119 12.2018 0.833008 8.75004 0.833008C5.29831 0.833008 2.50012 3.63119 2.50012 7.08293C2.50012 10.5347 5.29831 13.3328 8.75004 13.3328Z" fill="url(#paint0_radial_431_2635)"/>
<path d="M8.75004 13.3328C12.2018 13.3328 15 10.5347 15 7.08293C15 3.63119 12.2018 0.833008 8.75004 0.833008C5.29831 0.833008 2.50012 3.63119 2.50012 7.08293C2.50012 10.5347 5.29831 13.3328 8.75004 13.3328Z" fill="url(#paint1_radial_431_2635)" fill-opacity="0.6"/>
<path d="M8.75004 13.3328C12.2018 13.3328 15 10.5347 15 7.08293C15 3.63119 12.2018 0.833008 8.75004 0.833008C5.29831 0.833008 2.50012 3.63119 2.50012 7.08293C2.50012 10.5347 5.29831 13.3328 8.75004 13.3328Z" fill="#FFBECB"/>
<path d="M17.0833 6.66699H11.25C9.63919 6.66699 8.33337 7.97281 8.33337 9.58362V15.4169C8.33337 17.0277 9.63919 18.3335 11.25 18.3335H17.0833C18.6941 18.3335 19.9999 17.0277 19.9999 15.4169V9.58362C19.9999 7.97281 18.6941 6.66699 17.0833 6.66699Z" fill="#FF78A0"/>
<path fill-rule="evenodd" clip-rule="evenodd" d="M8.75004 13.3336C9.60593 13.3337 10.4527 13.1579 11.2379 12.8173C12.0231 12.4767 12.73 11.9784 13.3147 11.3534C13.8994 10.7283 14.3495 9.98987 14.6371 9.18373C14.9247 8.3776 15.0437 7.52099 14.9866 6.66699H11.25C10.4765 6.66699 9.73461 6.97428 9.18763 7.52125C8.64066 8.06823 8.33337 8.81008 8.33337 9.58362V13.3202C8.47115 13.3286 8.61004 13.333 8.75004 13.3336Z" fill="url(#paint2_linear_431_2635)"/>
<path fill-rule="evenodd" clip-rule="evenodd" d="M8.75004 13.3336C9.60593 13.3337 10.4527 13.1579 11.2379 12.8173C12.0231 12.4767 12.73 11.9784 13.3147 11.3534C13.8994 10.7283 14.3495 9.98987 14.6371 9.18373C14.9247 8.3776 15.0437 7.52099 14.9866 6.66699H11.25C10.4765 6.66699 9.73461 6.97428 9.18763 7.52125C8.64066 8.06823 8.33337 8.81008 8.33337 9.58362V13.3202C8.47115 13.3286 8.61004 13.333 8.75004 13.3336Z" fill="#FF3B76"/>
<path d="M5.83338 12.0868C5.83338 17.2851 4.2834 20 2.91675 20C1.73177 20 0.00012207 17.7476 0.00012207 12.0868C0.00012207 7.25436 1.30594 6.48438 2.91675 6.48438C4.35256 6.48438 5.83338 6.88854 5.83338 12.0868Z" fill="url(#paint3_linear_431_2635)"/>
<path d="M5.83338 12.0868C5.83338 17.2851 4.2834 20 2.91675 20C1.73177 20 0.00012207 17.7476 0.00012207 12.0868C0.00012207 7.25436 1.30594 6.48438 2.91675 6.48438C4.35256 6.48438 5.83338 6.88854 5.83338 12.0868Z" fill="url(#paint4_radial_431_2635)" fill-opacity="0.5"/>
<path d="M5.83338 12.0868C5.83338 17.2851 4.2834 20 2.91675 20C1.73177 20 0.00012207 17.7476 0.00012207 12.0868C0.00012207 7.25436 1.30594 6.48438 2.91675 6.48438C4.35256 6.48438 5.83338 6.88854 5.83338 12.0868Z" fill="url(#paint5_linear_431_2635)"/>
<path d="M5.83338 12.0868C5.83338 17.2851 4.2834 20 2.91675 20C1.73177 20 0.00012207 17.7476 0.00012207 12.0868C0.00012207 7.25436 1.30594 6.48438 2.91675 6.48438C4.35256 6.48438 5.83338 6.88854 5.83338 12.0868Z" fill="#FF78A0"/>
<path d="M0.0668945 10.3677C0.352724 7.06353 1.52021 6.48438 2.91686 6.48438C4.17517 6.48438 5.46682 6.7952 5.76849 10.3685C4.90292 10.8701 3.91892 11.1311 2.91852 11.1243C1.91749 11.1311 0.932871 10.8699 0.0668945 10.3677Z" fill="#FF3B76"/>
<path d="M3.82912 0.0697493C3.93083 0.122444 4.01611 0.20208 4.07563 0.299958C4.13515 0.397835 4.16662 0.510188 4.16661 0.624742C4.16661 1.59973 4.50244 2.16472 4.8891 2.72388C4.92577 2.77721 4.9641 2.83166 5.0041 2.88721C5.37326 3.41054 5.83326 4.06053 5.83326 4.99968C5.83326 5.3827 5.75782 5.76197 5.61124 6.11583C5.46467 6.46969 5.24983 6.79122 4.979 7.06205C4.70816 7.33289 4.38664 7.54772 4.03277 7.6943C3.67891 7.84087 3.29965 7.91631 2.91663 7.91631C2.53361 7.91631 2.15434 7.84087 1.80048 7.6943C1.44662 7.54772 1.12509 7.33289 0.854261 7.06205C0.583427 6.79122 0.368589 6.46969 0.222015 6.11583C0.0754408 5.76197 -5.7074e-09 5.3827 0 4.99968C0 4.31386 0.069999 3.56637 0.540826 2.73305C1.00082 1.91889 1.81248 1.07807 3.18246 0.113915C3.27591 0.0481374 3.3856 0.00923977 3.49961 0.00145284C3.61363 -0.00633408 3.72759 0.0172878 3.82912 0.0697493Z" fill="#FF78A0"/>
<defs>
<radialGradient id="paint0_radial_431_2635" cx="0" cy="0" r="1" gradientUnits="userSpaceOnUse" gradientTransform="translate(3.66078 16.3902) rotate(-78.382) scale(16.9097)">
<stop offset="0.222" stop-color="#4E46E2"/>
<stop offset="0.578" stop-color="#625DF6"/>
<stop offset="0.955" stop-color="#E37DFF"/>
</radialGradient>
<radialGradient id="paint1_radial_431_2635" cx="0" cy="0" r="1" gradientUnits="userSpaceOnUse" gradientTransform="translate(0.858477 10.3654) rotate(-17.2815) scale(6.82633 8.93555)">
<stop offset="0.566" stop-color="#251FBA"/>
<stop offset="1" stop-color="#5E51E4" stop-opacity="0"/>
</radialGradient>
<linearGradient id="paint2_linear_431_2635" x1="13.5941" y1="12.4144" x2="9.23336" y2="6.007" gradientUnits="userSpaceOnUse">
<stop offset="0.195" stop-color="#6D37CD"/>
<stop offset="0.765" stop-color="#EA71EF"/>
</linearGradient>
<linearGradient id="paint3_linear_431_2635" x1="-1.36736" y1="12.2218" x2="4.67006" y2="19.0959" gradientUnits="userSpaceOnUse">
<stop stop-color="#0FAFFF"/>
<stop offset="1" stop-color="#2764E7"/>
</linearGradient>
<radialGradient id="paint4_radial_431_2635" cx="0" cy="0" r="1" gradientUnits="userSpaceOnUse" gradientTransform="translate(2.67342 5.64022) rotate(80.5768) scale(13.4534 35.7336)">
<stop offset="0.5" stop-color="#DD3CE2" stop-opacity="0"/>
<stop offset="1" stop-color="#DD3CE2"/>
</radialGradient>
<linearGradient id="paint5_linear_431_2635" x1="8.02085" y1="12.6751" x2="-2.18735" y2="12.6751" gradientUnits="userSpaceOnUse">
<stop offset="0.307" stop-color="#0D91E1"/>
<stop offset="0.761" stop-color="#52B471"/>
</linearGradient>
</defs>
</svg>
