<svg width="22" height="22" viewBox="0 0 22 22" fill="none" xmlns="http://www.w3.org/2000/svg">
<path d="M19.0705 11.3315L11.7371 9.98702L9.27162 3.14258L6.86933 3.93702L9.33484 10.7204L4.40381 16.2204L6.30036 17.8092L11.2314 12.3092L18.5647 13.6537L19.0705 11.3315Z" fill="#14C66D"/>
<circle cx="10.709" cy="11" r="3" fill="#54E77B"/>
<path d="M19.4566 12.5714C19.5614 12.0476 19.6138 11.5238 19.6138 11C19.6138 10.2143 19.5614 9.95238 19.4566 9.42857L21.1852 8.17143C21.3947 8.01429 21.4995 7.7 21.3423 7.4381L19.0899 3.56191C18.9328 3.3 18.6709 3.19524 18.409 3.35238L16.4709 4.19048C15.6852 3.50952 14.7423 2.98571 13.7471 2.61905L13.5376 0.471429C13.4852 0.209524 13.2757 0 13.0138 0H8.509C8.24709 0 7.98519 0.209524 7.98519 0.471429L7.6709 2.61905C6.67566 2.98571 5.7328 3.50952 4.94709 4.19048L3.00899 3.3C2.74709 3.19524 2.4328 3.3 2.32804 3.56191L0.0756614 7.4381C-0.0814815 7.7 0.0232804 8.01429 0.232804 8.17143L1.96138 9.42857C1.85661 9.95238 1.80423 10.4762 1.80423 11C1.80423 11.7857 1.85661 12.0476 1.96138 12.5714L0.232804 13.8286C0.0232804 13.9857 -0.0814815 14.3 0.0756614 14.5619L2.32804 18.4381C2.48519 18.7 2.74709 18.8048 3.00899 18.6476L4.94709 17.8095C5.7328 18.4905 6.67566 19.0143 7.6709 19.381L7.88042 21.5286C7.93281 21.7905 8.14233 22 8.40423 22H12.909C13.1709 22 13.4328 21.7905 13.4328 21.5286L13.6423 19.381C14.6376 19.0143 15.5804 18.4905 16.3661 17.8095L18.3042 18.7C18.5661 18.8048 18.8804 18.7 18.9852 18.4905L21.2376 14.6143C21.3947 14.3524 21.2899 14.0381 21.0804 13.881L19.4566 12.5714ZM10.709 16.7619C7.51376 16.7619 4.94709 14.1952 4.94709 11C4.94709 7.80476 7.51376 5.2381 10.709 5.2381C13.9042 5.2381 16.4709 7.80476 16.4709 11C16.4709 14.1952 13.9042 16.7619 10.709 16.7619Z" fill="#54E77B"/>
</svg>
