<svg width="81" height="28" viewBox="0 0 81 28" fill="none" xmlns="http://www.w3.org/2000/svg">
<path d="M36.0198 0.0449045C37.7724 -0.138195 39.2952 0.286956 39.4856 0.454084L39.4808 0.456037C39.7831 0.728062 39.5432 1.29754 39.3226 1.74119C37.3821 5.46908 31.0868 15.5797 29.388 24.0781C29.0179 25.7453 29.1892 26.2298 28.6429 26.6875C27.9681 27.2548 24.9824 27.0788 24.1507 26.7519C23.2237 26.3888 23.0998 25.8621 23.2317 25.2783C23.2372 25.2604 23.4931 24.4086 23.8138 23.5937C23.878 23.4291 23.9418 23.2624 24.0071 23.0967C24.104 22.8503 24.1109 22.5803 24.0315 22.3281C23.5576 20.8244 22.0139 18.6531 21.2083 17.7236C20.9748 17.4539 20.7331 17.184 20.4739 16.9424C20.3864 16.8595 20.2951 16.7786 20.2063 16.6992C19.6133 17.2724 19.025 17.8518 18.4436 18.4355C16.1424 20.7636 13.8095 23.3101 11.2386 25.3965C9.71736 26.5873 7.97672 27.6219 6.03642 27.915C3.81111 28.2513 0.889212 27.626 0.117476 25.2793C-0.102986 24.6139 -0.0253462 23.8074 0.45439 23.2529C1.24367 22.3435 2.83637 22.0776 3.70732 22.9883C3.96744 23.259 4.18793 23.5915 4.4749 23.8388C5.25714 24.4355 6.53721 23.9646 7.06377 23.7568C8.19839 23.3155 9.26646 22.5919 10.261 21.8681C12.4618 20.2698 14.5812 18.4061 16.6536 16.5859C17.1392 16.1622 17.6372 15.7284 18.138 15.2871C18.153 15.2754 18.1505 15.2504 18.1331 15.2422C17.5658 14.9293 16.9749 14.6658 16.3655 14.4521C14.8384 13.9162 13.1732 13.7121 11.5784 13.5439C11.0203 13.4844 10.138 13.1969 10.347 12.4648C10.5525 11.7481 11.3553 11.2112 12.0335 11.0185C13.3901 10.6368 14.9616 10.8969 16.1653 11.3183C17.6795 11.8741 18.9864 12.6339 20.1224 13.5351C21.0913 12.6748 22.0511 11.8159 22.9593 10.9883C23.7683 10.2504 24.5788 9.51596 25.3948 8.78514C26.8577 7.47517 28.3304 6.17682 29.8108 4.8867C30.5487 4.24342 31.29 3.60227 32.0325 2.96483C32.7353 2.36006 33.4022 1.70864 34.1097 1.10155C34.4014 0.851782 34.7093 0.516663 35.0442 0.325178C35.3256 0.164059 35.6999 0.0799303 36.0198 0.0449045ZM55.8186 5.87596C56.6206 5.70672 57.446 5.73063 58.2561 5.82518C58.514 5.85435 58.7508 5.96855 58.7767 6.2578C58.7953 6.44333 58.6649 6.61745 58.5901 6.77733C58.2539 7.49644 57.9203 8.21367 57.5852 8.93162C57.061 10.0559 56.5343 11.1804 56.0101 12.3047C55.4135 13.5864 54.8148 14.8672 54.2171 16.1455C53.6625 17.3329 53.1096 18.5208 52.555 19.707C52.2876 20.2779 52.0497 20.8619 51.8548 21.4619C51.5793 22.3083 51.2012 23.367 51.5735 23.9355C51.6716 24.0838 51.8294 24.1767 52.0022 24.2129C52.9373 24.4075 54.0583 23.462 54.6116 22.7265C54.8567 22.4254 54.985 22.1286 55.0784 21.8017C55.0948 21.7387 55.1064 21.6738 55.1145 21.6084C55.1286 21.4929 55.1473 21.3728 55.1683 21.248C55.25 20.8547 55.3667 20.4066 55.5032 20.0097C56.617 16.7699 59.6601 13.5055 63.2864 13.2031C67.7028 12.8344 68.7933 16.5148 66.0384 19.4219C64.0197 21.5526 61.0102 22.1676 58.1614 22.3428C58.1206 23.3048 58.7039 24.0889 59.6624 24.3154C61.9694 24.8557 64.9794 23.4789 66.6839 21.9717C66.9698 21.7184 67.263 21.4362 67.4544 21.1025C67.6459 20.7651 67.7088 20.3688 67.8313 20.0068C68.9464 16.7682 71.9881 13.5035 75.6155 13.2012C80.0295 12.8325 81.1202 16.5139 78.3675 19.4209C76.3477 21.5516 73.3383 22.1667 70.4895 22.3418C70.4475 23.3038 71.0318 24.0879 71.9915 24.3144C74.2985 24.8547 77.3073 23.4779 79.013 21.9707L79.0149 21.9726C79.3164 21.6752 80.2992 21.9223 80.1673 22.5888C80.1169 22.7875 79.9252 23.2115 79.3851 23.8252C78.8808 24.3959 78.2899 24.886 77.6468 25.2969C76.2645 26.1818 74.5785 26.8716 73.0794 27.0176C72.637 27.0631 71.7907 27.0654 71.3528 27.0176C69.7628 26.8483 68.1025 25.7805 67.5735 24.2558C67.5735 24.2558 67.4841 23.9802 67.428 23.4971C66.9963 23.9533 66.4481 24.4804 66.1946 24.6767C64.698 25.8453 62.5824 26.8388 60.7483 27.0176C60.307 27.0631 59.4584 27.0654 59.0218 27.0176C57.4319 26.8481 55.7724 25.7803 55.2435 24.2558C55.2435 24.2558 55.2183 24.1762 55.1868 24.0303C53.2592 26.4447 48.5564 29.3306 48.3743 24.2226C46.7223 25.905 44.5783 27.3417 42.0892 27.0019C41.2476 26.8851 40.3802 26.4028 39.8421 25.706C39.7078 25.5181 39.3867 25.0473 39.1976 24.2685C37.8514 25.6474 34.5564 27.8525 32.8401 26.7539C31.4325 25.6401 31.8107 24.0628 32.6116 22.1797C32.8417 21.6402 33.8341 19.5145 34.7132 17.6396C35.2479 16.5013 35.7405 15.4532 35.9974 14.9092L35.9983 14.9082C36.0169 14.8756 36.035 14.848 36.0501 14.8213C36.1645 14.6333 36.3493 14.4982 36.5618 14.4433C36.8815 14.3769 37.207 14.3449 37.5325 14.3379C37.6236 14.3367 38.39 14.3657 38.6819 14.3984C38.9059 14.4253 39.1115 14.5233 39.136 14.7754C39.1486 14.9363 38.7435 15.7105 38.7356 15.7256C38.5337 16.133 38.2872 16.6225 38.0198 17.1572L37.7776 17.6396C36.7234 19.761 35.4756 22.3691 35.346 23.4023C35.1477 24.9665 37.0271 24.1577 37.7825 23.5752C38.3523 23.135 38.7666 22.6311 39.055 22.1816C39.0911 22.1233 39.115 22.0578 39.1243 21.9902C39.2131 21.3762 39.3896 20.6842 39.6907 19.9092C40.745 17.2554 43.0905 14.4028 46.1692 13.4385C47.5468 13.0848 49.1155 13.014 50.2981 13.6689C50.7744 13.9432 51.2228 14.4238 51.3548 14.8662C51.3621 14.8486 54.2397 7.93296 55.2298 6.30955C55.3617 6.09473 55.5723 5.93784 55.8186 5.87596ZM49.7815 18.7754C50.3513 16.9937 50.1642 15.5333 47.9202 15.7295C45.3692 15.9525 43.1776 18.5933 42.553 20.9365C42.0487 22.829 42.6048 24.8933 44.9515 24.0888C46.9175 23.4151 49.1581 20.7274 49.7815 18.7754ZM63.6985 15.4385C62.0197 15.3602 60.1602 17.1582 59.1946 18.8896L59.1936 18.8906H59.1927V18.8926C59.1763 18.9194 59.1627 18.9468 59.1487 18.9736L59.1028 19.0586C59.0889 19.0865 59.0748 19.1136 59.0608 19.1416C59.027 19.2116 58.9918 19.2794 58.9602 19.3506C58.784 19.7276 58.6567 20.0931 58.5901 20.4258L58.5892 20.4287C58.5895 20.4287 58.5917 20.4284 58.5931 20.4277L58.594 20.4248C58.738 20.4061 58.8854 20.3829 59.0354 20.3564C59.9363 20.1973 60.932 19.8982 61.846 19.4658C61.9982 19.3938 62.1483 19.3176 62.2952 19.2383L61.845 19.4687C61.1048 19.8239 60.311 20.0904 59.5569 20.2656C59.2237 20.343 58.8986 20.4033 58.5892 20.4443V20.4472C59.7438 20.2943 61.1184 19.8857 62.2952 19.2412C62.3453 19.2144 62.3957 19.1862 62.4446 19.1582C63.1917 18.7379 63.8474 18.2203 64.305 17.6133C64.5805 17.249 64.7475 16.8007 64.7405 16.4072C64.7409 16.3816 64.7367 16.3563 64.7356 16.331C64.7007 15.8543 64.3975 15.4718 63.6985 15.4385ZM76.0286 15.4394C73.829 15.3355 71.3162 18.4593 70.9192 20.4277C72.8632 20.1744 75.4321 19.2085 76.637 17.6113C77.2674 16.7754 77.3291 15.5004 76.0286 15.4385V15.4394ZM32.9788 5.61131C32.4184 5.97794 31.454 6.68254 30.8294 7.17869C29.0537 8.60416 27.222 10.1794 25.5374 11.7041C24.3047 12.8446 23.0657 13.9859 21.8411 15.1416C23.2585 16.6851 24.3315 18.4708 25.1663 20.291C27.7967 14.2444 30.907 9.10006 33.0296 5.65819H33.0286C33.047 5.62671 33.0103 5.5915 32.9788 5.61131ZM38.7972 10.1435C39.8326 9.84944 40.7319 10.25 40.7542 11.0928H40.7522C40.7756 11.9824 39.8619 12.9042 38.7259 13.1377C37.6191 13.3175 36.8553 12.8627 36.93 12.0361C37.0048 11.2096 37.8154 10.4226 38.7972 10.1435Z" fill="#3056FF"/>
</svg>
