<svg width="20" height="20" viewBox="0 0 20 20" fill="none" xmlns="http://www.w3.org/2000/svg">
<path d="M17.4164 14.8442C17.4164 15.5266 17.1453 16.181 16.6628 16.6635C16.1803 17.146 15.5259 17.4171 14.8435 17.4171H2.57287C1.89051 17.4171 1.23609 17.146 0.753577 16.6635C0.27107 16.181 0 15.5266 0 14.8442V4.75064L8.70819 3.95898L17.4164 4.75064V14.8442Z" fill="url(#paint0_linear_431_2660)"/>
<path d="M17.4164 14.8442C17.4164 15.5266 17.1453 16.181 16.6628 16.6635C16.1803 17.146 15.5259 17.4171 14.8435 17.4171H2.57287C1.89051 17.4171 1.23609 17.146 0.753577 16.6635C0.27107 16.181 0 15.5266 0 14.8442V4.75064L8.70819 3.95898L17.4164 4.75064V14.8442Z" fill="url(#paint1_linear_431_2660)"/>
<path d="M17.4164 14.8442C17.4164 15.5266 17.1453 16.181 16.6628 16.6635C16.1803 17.146 15.5259 17.4171 14.8435 17.4171H2.57287C1.89051 17.4171 1.23609 17.146 0.753577 16.6635C0.27107 16.181 0 15.5266 0 14.8442V4.75064L8.70819 3.95898L17.4164 4.75064V14.8442Z" fill="url(#paint2_radial_431_2660)" fill-opacity="0.3"/>
<path d="M17.4164 14.8442C17.4164 15.5266 17.1453 16.181 16.6628 16.6635C16.1803 17.146 15.5259 17.4171 14.8435 17.4171H2.57287C1.89051 17.4171 1.23609 17.146 0.753577 16.6635C0.27107 16.181 0 15.5266 0 14.8442V4.75064L8.70819 3.95898L17.4164 4.75064V14.8442Z" fill="url(#paint3_radial_431_2660)" fill-opacity="0.3"/>
<path d="M17.4164 14.8442C17.4164 15.5266 17.1453 16.181 16.6628 16.6635C16.1803 17.146 15.5259 17.4171 14.8435 17.4171H2.57287C1.89051 17.4171 1.23609 17.146 0.753577 16.6635C0.27107 16.181 0 15.5266 0 14.8442V4.75064L8.70819 3.95898L17.4164 4.75064V14.8442Z" fill="#FFE669"/>
<path d="M14.8435 0C15.5259 0 16.1803 0.27107 16.6628 0.753578C17.1453 1.23609 17.4164 1.89051 17.4164 2.57287V4.74992H0V2.57287C0 1.89051 0.27107 1.23609 0.753577 0.753578C1.23609 0.27107 1.89051 0 2.57287 0H14.8435Z" fill="#FFC800"/>
<path d="M9.10642 13.3926C8.73919 13.3926 8.38701 13.5385 8.12735 13.7981C7.86768 14.0578 7.7218 14.41 7.7218 14.7772V18.4695C7.7218 18.8367 7.86768 19.1889 8.12735 19.4486C8.38701 19.7082 8.73919 19.8541 9.10642 19.8541C9.47364 19.8541 9.82582 19.7082 10.0855 19.4486C10.3452 19.1889 10.491 18.8367 10.491 18.4695V14.7772C10.491 14.41 10.3452 14.0578 10.0855 13.7981C9.82582 13.5385 9.47364 13.3926 9.10642 13.3926Z" fill="#FFBB1D"/>
<path d="M13.6247 7.85449C13.2575 7.85449 12.9053 8.00037 12.6457 8.26004C12.386 8.5197 12.2401 8.87188 12.2401 9.23911V18.4699C12.2401 18.8371 12.386 19.1893 12.6457 19.4489C12.9053 19.7086 13.2575 19.8545 13.6247 19.8545C13.992 19.8545 14.3441 19.7086 14.6038 19.4489C14.8635 19.1893 15.0093 18.8371 15.0093 18.4699V9.23911C15.0093 8.87188 14.8635 8.5197 14.6038 8.26004C14.3441 8.00037 13.992 7.85449 13.6247 7.85449Z" fill="#FFBB1D"/>
<path d="M16.7583 12.0086C16.7583 11.6414 16.9042 11.2892 17.1638 11.0296C17.4235 10.7699 17.7757 10.624 18.1429 10.624C18.5101 10.624 18.8623 10.7699 19.122 11.0296C19.3817 11.2892 19.5275 11.6414 19.5275 12.0086V18.4702C19.5275 18.8374 19.3817 19.1896 19.122 19.4492C18.8623 19.7089 18.5101 19.8548 18.1429 19.8548C17.7757 19.8548 17.4235 19.7089 17.1638 19.4492C16.9042 19.1896 16.7583 18.8374 16.7583 18.4702V12.0086Z" fill="#FFBB1D"/>
<defs>
<linearGradient id="paint0_linear_431_2660" x1="11.8526" y1="19.0701" x2="6.98872" y2="4.59468" gradientUnits="userSpaceOnUse">
<stop stop-color="#B3E0FF"/>
<stop offset="1" stop-color="#B3E0FF"/>
</linearGradient>
<linearGradient id="paint1_linear_431_2660" x1="10.5741" y1="9.46414" x2="12.9847" y2="20.4927" gradientUnits="userSpaceOnUse">
<stop stop-color="#DCF8FF" stop-opacity="0"/>
<stop offset="1" stop-color="#FF6CE8" stop-opacity="0.7"/>
</linearGradient>
<radialGradient id="paint2_radial_431_2660" cx="0" cy="0" r="1" gradientUnits="userSpaceOnUse" gradientTransform="translate(10.6873 17.4171) rotate(90) scale(3.95827 2.0124)">
<stop offset="0.535" stop-color="#4A43CB"/>
<stop offset="1" stop-color="#4A43CB" stop-opacity="0"/>
</radialGradient>
<radialGradient id="paint3_radial_431_2660" cx="0" cy="0" r="1" gradientUnits="userSpaceOnUse" gradientTransform="translate(13.8539 15.438) rotate(90) scale(7.52071 1.97913)">
<stop offset="0.535" stop-color="#4A43CB"/>
<stop offset="1" stop-color="#4A43CB" stop-opacity="0"/>
</radialGradient>
</defs>
</svg>
