<svg width="17" height="17" viewBox="0 0 17 17" fill="none" xmlns="http://www.w3.org/2000/svg">
<path d="M2.625 15.75V12M2.625 4.5V0.75M0.75 2.625H4.5M0.75 13.875H4.5M9 1.5L7.69937 4.88165C7.48786 5.43157 7.3821 5.70653 7.21765 5.93781C7.07189 6.1428 6.8928 6.32189 6.68781 6.46765C6.45653 6.6321 6.18157 6.73786 5.63165 6.94937L2.25 8.25L5.63165 9.55063C6.18157 9.76214 6.45653 9.8679 6.68781 10.0324C6.8928 10.1781 7.07189 10.3572 7.21765 10.5622C7.3821 10.7935 7.48786 11.0684 7.69937 11.6184L9 15L10.3006 11.6184C10.5121 11.0684 10.6179 10.7935 10.7824 10.5622C10.9281 10.3572 11.1072 10.1781 11.3122 10.0324C11.5435 9.8679 11.8184 9.76214 12.3684 9.55063L15.75 8.25L12.3684 6.94937C11.8184 6.73786 11.5435 6.6321 11.3122 6.46765C11.1072 6.32189 10.9281 6.1428 10.7824 5.93781C10.6179 5.70653 10.5121 5.43157 10.3006 4.88165L9 1.5Z" stroke="white" stroke-width="1.5" stroke-linecap="round" stroke-linejoin="round"/>
</svg>
