<svg width="14" height="22" viewBox="0 0 14 22" fill="none" xmlns="http://www.w3.org/2000/svg">
<path d="M13.88 6.9301C13.8746 3.09647 10.7637 -0.00540004 6.9301 7.05839e-06C3.09827 0.00541415 -0.00540004 3.1163 7.0543e-06 6.94812C0.00180942 8.61891 0.823688 10.0896 1.71946 11.4648C2.6603 12.9085 3.30014 14.2982 4.01027 15.8464C4.42662 16.7566 5.56211 17.1117 6.55341 17.1801C7.52308 17.245 8.75409 17.1351 9.56516 16.4718C10.8358 15.4337 10.8647 13.4475 11.6992 12.1227C12.7211 10.5042 13.8818 8.93613 13.88 6.9301Z" fill="#9EB6FF"/>
<path d="M8.82446 21.0809C8.9308 21.0034 9.01911 20.9133 9.08039 20.7835C9.15429 20.6213 9.12905 20.4681 9.11103 20.2969C9.09661 20.1509 9.11103 20.0878 9.21016 19.9869C9.32191 19.8734 9.43546 19.7706 9.45528 19.603C9.4697 19.4786 9.44267 19.3597 9.41924 19.2407C9.40662 19.1975 9.39941 19.1524 9.39941 19.1074C9.42464 19.0118 9.5454 18.9451 9.61209 18.8803C9.78512 18.7126 9.94553 18.4801 9.99599 18.244C10.0284 18.0962 10.0212 17.8835 9.9275 17.7592C9.78872 17.5753 9.60308 17.6492 9.42645 17.7285C9.36877 17.7538 9.3183 17.7862 9.26063 17.8133C8.16479 18.3449 6.8743 18.3449 5.71177 18.0512C5.41618 17.9773 5.1206 17.8871 4.84483 17.7574C4.62675 17.6564 4.31854 17.5429 4.16895 17.8133C4.04278 18.0404 4.10767 18.3431 4.19959 18.572C4.25366 18.7054 4.37081 18.8208 4.46814 18.9235C4.56186 19.0226 4.60332 19.0731 4.57628 19.1993C4.55105 19.3146 4.56907 19.4119 4.57989 19.5291C4.59611 19.6877 4.61774 19.8391 4.72047 19.9671C4.8196 20.0914 4.96739 20.187 5.05571 20.3185C5.13321 20.4321 5.13141 20.5853 5.17647 20.7133C5.25217 20.9223 5.43421 21.144 5.61805 21.2702C5.82712 21.4126 6.10829 21.4036 6.29033 21.591C6.53005 21.8397 6.87249 22.02 7.22576 21.9983C7.65833 21.9731 7.89083 21.6379 8.22066 21.4108C8.34863 21.3225 8.50904 21.2846 8.64422 21.2017C8.7055 21.1602 8.76678 21.1224 8.82446 21.0809Z" fill="#2C60FF"/>
</svg>
